<svg xmlns="http://www.w3.org/2000/svg" width="20.004" height="20.004" viewBox="0 0 86 86">
  <defs>
    <style>
      .cls-1 {
        fill: #fff;
        fill-rule: evenodd;
      }
    </style>
  </defs>
  <path id="Rounded_Rectangle_1" data-name="Rounded Rectangle 1" class="cls-1" d="M9.844-.156H76a10,10,0,0,1,10,10V76A10,10,0,0,1,76,86H9.844a10,10,0,0,1-10-10V9.844A10,10,0,0,1,9.844-.156ZM14,34s4,21,30,21c0,0,13,.5,20-10H57l16-8V54l-3-6A30.228,30.228,0,0,1,44,62C36.667,62,14,57,14,34Z"/>
</svg>
